<svg xmlns="http://www.w3.org/2000/svg" viewBox="0 0 14 12" width="14" height="12" fill="none" class="tv-screener-toolbar__button-icon"><path fill="#6a6d78" fill-rule="evenodd" clip-rule="evenodd" d="M2.71 1.29H1.3v9.42H2.7V1.3zM1.3 0C.58 0 0 .58 0 1.29v9.42C0 11.42.58 12 1.29 12H2.7C3.42 12 4 11.42 4 10.71V1.3C4 .58 3.42 0 2.71 0H1.3zM7.7 1.29H6.3v9.42H7.7V1.3zM6.3 0C5.58 0 5 .58 5 1.29v9.42c0 .71.58 1.29 1.29 1.29H7.7C8.42 12 9 11.42 9 10.71V1.3C9 .58 8.42 0 7.71 0H6.3zm5 1.29h1.42v9.42H11.3V1.3zm-1.29 0C10 .58 10.58 0 11.29 0h1.42C13.42 0 14 .58 14 1.29v9.42c0 .71-.58 1.29-1.29 1.29H11.3c-.71 0-1.29-.58-1.29-1.29V1.3z"></path></svg>