<svg xmlns="http://www.w3.org/2000/svg" viewBox="0 0 18 18" width="18" height="18" class="tv-screener-toolbar__button-icon tv-screener-toolbar__button-icon--standalone-refresh"><g transform="translate(-8 -7)"><path fill-rule="evenodd" fill="#6a6d78" d="M17 11c1.38 0 2.63.56 3.54 1.46L18 15h6V9l-2.05 2.05A6.976 6.976 0 0 0 17 9c-3.53 0-6.43 2.61-6.92 6h2.02a5 5 0 0 1 4.9-4zm6.92 6H21.9a5 5 0 0 1-4.9 4c-1.38 0-2.63-.56-3.54-1.46L16 17h-6v6l2.05-2.05A6.976 6.976 0 0 0 17 23c1.55 0 2.98-.51 4.14-1.36l1.5-1.5A6.89 6.89 0 0 0 23.92 17z"></path></g></svg>